<?xml version="1.0" encoding="UTF-8"?>
<svg id="Layer_1" xmlns="http://www.w3.org/2000/svg" xmlns:xlink="http://www.w3.org/1999/xlink" version="1.1" viewBox="0 0 511.4 82.3">
  <!-- Generator: Adobe Illustrator 30.6.0, SVG Export Plug-In . SVG Version: 2.1.4 Build 109)  -->
  <defs>
    <style>
      .st0 {
        fill: #d4af37;
      }

      .st1 {
        fill: url(#linear-gradient);
      }

      .st2 {
        fill: #33204f;
      }

      .st3 {
        fill: #5a3188;
      }
    </style>
    <linearGradient id="linear-gradient" x1="65.5" y1="41.1" x2="149.6" y2="41.1" gradientUnits="userSpaceOnUse">
      <stop offset="0" stop-color="#5a3188"/>
      <stop offset="0" stop-color="#4d2874"/>
      <stop offset=".2" stop-color="#401f5f"/>
      <stop offset=".4" stop-color="#381953"/>
      <stop offset=".5" stop-color="#36184f"/>
      <stop offset=".6" stop-color="#381953"/>
      <stop offset=".8" stop-color="#401e5f"/>
      <stop offset=".9" stop-color="#4d2774"/>
      <stop offset="1" stop-color="#5b3089"/>
    </linearGradient>
  </defs>
  <path class="st3" d="M63.5,31.6l1,.9,1,.9,1,.9,1,.9,1,.9,1,.9,1,.9h0s7.9-13.6,7.9-13.6l-.4-.3-1-.9-1-.9-1-.9-1-.9-1-.9-1-.9-1-.9-1-.9-1-.9-1-.9-1-.9-.3-.3c-.2-.2-.5-.4-.7-.6-.3-.3-.7-.6-1.1-.8-.4-.3-.7-.5-1.1-.8-.4-.3-.7-.5-1.1-.8-.4-.3-.7-.5-1.1-.7-.4-.2-.7-.5-1.1-.7-.4-.2-.7-.5-1.1-.7-.4-.2-.7-.4-1.1-.7-.4-.2-.7-.4-1.1-.6-.4-.2-.7-.4-1.1-.6-.4-.2-.7-.4-1.1-.6-.4-.2-.8-.4-1.1-.6-.4-.2-.8-.4-1.1-.5-.4-.2-.8-.3-1.1-.5-.4-.2-.8-.3-1.2-.5-.4-.2-.8-.3-1.2-.4-.4-.1-.8-.3-1.2-.4-.4-.1-.8-.3-1.2-.4-.4-.1-.8-.3-1.2-.4-.4-.1-.8-.2-1.2-.3-.4-.1-.8-.2-1.2-.3-.4-.1-.8-.2-1.2-.3s-.8-.2-1.2-.3c-.4,0-.8-.2-1.2-.2-.4,0-.8-.2-1.2-.2-.4,0-.8-.1-1.2-.2-.4,0-.8-.1-1.2-.2-.4,0-.8,0-1.2-.1-.4,0-.8,0-1.2-.1-.4,0-.8,0-1.3,0-.4,0-.8,0-1.3,0-.4,0-.8,0-1.3,0-.4,0-.8,0-1.3,0-.2,0-.4,0-.5,0s-.5,0-.7,0c-.4,0-.9,0-1.3,0-.4,0-.9,0-1.3,0-.4,0-.9,0-1.3.1-.4,0-.9.1-1.3.2-.5,0-.9.1-1.3.2-.5,0-.9.2-1.4.3-.5.1-.9.2-1.4.4-.5.1-.9.3-1.4.4-.5.2-.9.3-1.4.5-.5.2-1,.4-1.4.6-.5.2-1,.5-1.5.7-.5.3-1,.6-1.5.9-.5.3-1.1.7-1.6,1.1-.6.4-1.1.8-1.6,1.3-.6.5-1.2,1.1-1.7,1.7-.7.8-1.3,1.6-1.9,2.4C1.4,14.7,0,19.2,0,24.4s0,.8,0,1.2c0,1.2.2,2.3.4,3.4.2.9.4,1.7.6,2.5.2.7.5,1.3.8,2,.3.6.5,1.1.8,1.6.3.5.6.9.9,1.4.3.4.6.8,1,1.2.3.4.6.7,1,1.1.3.3.7.7,1,1,.3.3.7.6,1,.9.3.3.7.5,1.1.8.4.3.7.5,1.1.7.4.2.7.5,1.1.7.4.2.7.4,1.1.6.4.2.7.4,1.1.6.4.2.8.4,1.1.5.4.2.8.3,1.1.5.4.2.8.3,1.1.5.4.2.8.3,1.2.5.4.1.8.3,1.2.4.4.1.8.3,1.2.4.3.1.6.2.9.3,0,0,.2,0,.3,0,.4.1.8.2,1.2.4.4.1.8.2,1.2.4.4.1.8.2,1.2.4.4.1.8.2,1.2.3.4.1.8.2,1.2.3.4.1.8.2,1.2.4.4.1.8.2,1.2.4.4.1.8.3,1.2.4.4.1.8.3,1.2.4.4.2.8.3,1.2.5.4.2.8.4,1.1.5.4.2.8.4,1.1.6.4.3.7.5,1.1.8.4.3.7.7,1,1.1.4.5.6,1,.8,1.6.3.8.5,1.7.5,2.8s0,.2,0,.4c0,1.5-.4,2.7-1,3.8-.5.8-1.1,1.5-1.8,2.1-.5.4-1,.7-1.5.9-.5.2-.9.4-1.4.6-.4.1-.9.3-1.4.4-.4,0-.9.2-1.3.2-.4,0-.9,0-1.3.1-.4,0-.8,0-1.3,0s0,0,0,0c-.4,0-.8,0-1.3,0-.4,0-.8,0-1.3,0-.4,0-.8,0-1.2-.1-.4,0-.8-.1-1.2-.2-.4,0-.8-.1-1.2-.2-.4,0-.8-.2-1.2-.2-.4,0-.8-.2-1.2-.3-.4,0-.8-.2-1.2-.3-.4-.1-.8-.2-1.2-.3-.4-.1-.8-.2-1.2-.3-.4-.1-.8-.2-1.2-.4-.4-.1-.8-.3-1.2-.4-.4-.1-.8-.3-1.2-.4-.4-.1-.8-.3-1.2-.5-.4-.2-.8-.3-1.1-.5-.4-.2-.8-.3-1.1-.5-.4-.2-.8-.4-1.1-.5-.4-.2-.8-.4-1.1-.6-.4-.2-.7-.4-1.1-.6-.2-.1-.4-.2-.6-.3-.2-.1-.4-.2-.6-.2-.6-.1-1.2.2-1.5.7v.5c-.2,0-.2.1-.2.2v14.1c0,0,0,.1,0,.2,0,.5.3.9.8,1.1,0,0,.1,0,.2,0,.4.2.8.3,1.1.5.4.2.8.3,1.1.5.4.2.8.3,1.2.5.4.1.8.3,1.2.4.4.1.8.3,1.2.4.4.1.8.2,1.2.4s.8.2,1.2.4c.4.1.8.2,1.2.3.4.1.8.2,1.2.3s.8.2,1.2.3c.4,0,.8.2,1.2.2.4,0,.8.2,1.2.2.4,0,.8.1,1.2.2.4,0,.8.1,1.2.2s.8.1,1.2.2c.4,0,.8,0,1.2.1.4,0,.8,0,1.2.1.4,0,.8,0,1.3,0,.4,0,.8,0,1.3,0,.4,0,.9,0,1.3,0,0,0,0,0,0,0,.4,0,.9,0,1.3,0,.4,0,.9,0,1.3,0,.4,0,.9,0,1.3,0,.4,0,.9,0,1.3-.1.4,0,.9-.1,1.3-.2.5,0,.9-.1,1.3-.2.5,0,.9-.2,1.4-.3.5-.1.9-.2,1.4-.3.5-.1.9-.3,1.4-.4.5-.2.9-.3,1.4-.5.5-.2,1-.4,1.4-.6.5-.2,1-.5,1.5-.7.5-.3,1-.5,1.5-.8.5-.3,1-.7,1.5-1,.6-.4,1.1-.8,1.6-1.2.6-.5,1.2-1,1.7-1.6.7-.7,1.3-1.5,1.9-2.2.9-1.3,1.7-2.7,2.4-4.2.9-2,1.5-4.2,1.8-6.6.1-1.1.2-2.3.2-3.4s0-1.3,0-1.9c0-1.1-.2-2.2-.4-3.2-.2-.8-.4-1.6-.6-2.4-.2-.7-.5-1.3-.8-1.9-.3-.6-.5-1.1-.8-1.6-.3-.5-.6-1-.9-1.4-.3-.4-.6-.8-1-1.2-.3-.4-.6-.7-1-1.1-.3-.3-.7-.7-1-1-.3-.3-.7-.6-1-.9-.3-.3-.7-.5-1.1-.8-.4-.3-.7-.5-1.1-.7-.4-.2-.7-.5-1.1-.7-.4-.2-.7-.4-1.1-.6-.4-.2-.7-.4-1.1-.6-.4-.2-.7-.4-1.1-.5-.4-.2-.8-.3-1.1-.5-.4-.2-.8-.3-1.1-.5-.4-.2-.8-.3-1.2-.5-.4-.1-.8-.3-1.2-.4-.4-.1-.8-.3-1.2-.4-.4-.1-.8-.3-1.2-.4-.1,0-.3,0-.4-.1-.3,0-.5-.2-.8-.2-.4-.1-.8-.3-1.2-.4-.4-.1-.8-.2-1.2-.4-.4-.1-.8-.2-1.2-.4-.4-.1-.8-.2-1.2-.4-.4-.1-.8-.2-1.2-.4-.4-.1-.8-.2-1.2-.4-.4-.1-.8-.3-1.2-.4-.4-.1-.8-.3-1.2-.4-.4-.1-.8-.3-1.2-.5-.4-.2-.8-.3-1.1-.5-.4-.2-.8-.4-1.1-.6-.4-.2-.7-.5-1.1-.8-.4-.3-.7-.7-1-1.1-.4-.5-.6-1-.8-1.6-.2-.7-.4-1.5-.4-2.5s0-1,.1-1.5c0-.4.2-.8.3-1.2.4-1.1,1.1-2,2-2.7.5-.4,1-.7,1.5-1,.4-.2.9-.4,1.4-.6.4-.1.9-.2,1.4-.3.4,0,.9-.2,1.3-.2.4,0,.9,0,1.3-.1.3,0,.7,0,1,0s.2,0,.3,0c.4,0,.8,0,1.3,0,.4,0,.8,0,1.3,0,.4,0,.8,0,1.3,0,.4,0,.8,0,1.2.1.4,0,.8.1,1.2.2.4,0,.8.1,1.2.2.4,0,.8.2,1.2.2.4,0,.8.2,1.2.3.4,0,.8.2,1.2.3.4.1.8.2,1.2.3.4.1.8.2,1.2.4.4.1.8.3,1.2.4.4.1.8.3,1.2.4.4.1.8.3,1.2.5.4.2.8.3,1.1.5.4.2.8.4,1.1.5.4.2.8.4,1.1.6.4.2.7.4,1.1.6.4.2.7.4,1.1.6.4.2.7.4,1.1.7.4.2.7.5,1.1.7.4.2.7.5,1.1.8.4.3.7.5,1.1.8.4.3.7.6,1.1.8.1.1.3.2.4.3l.6.5,1,.9,1,.9,1,.9,1,.9,1,.9,1,.9Z"/>
  <path class="st3" d="M198.8,51.3c-.2-.8-.4-1.5-.7-2.2-.2-.6-.5-1.2-.8-1.8-.3-.5-.6-1-.9-1.5-.3-.5-.6-.9-.9-1.3-.3-.4-.6-.8-1-1.2-.3-.4-.7-.7-1-1-.3-.3-.7-.6-1-.9-.3-.3-.7-.6-1-.9-.3-.3-.7-.5-1.1-.8-.4-.2-.7-.5-1.1-.7-.4-.2-.7-.5-1.1-.7-.4-.2-.7-.4-1.1-.6-.4-.2-.7-.4-1.1-.6-.4-.2-.8-.4-1.1-.5-.4-.2-.8-.3-1.1-.5-.4-.2-.8-.3-1.1-.5-.4-.2-.8-.3-1.2-.5-.4-.1-.8-.3-1.2-.4-.4-.1-.8-.3-1.2-.4-.4-.1-.8-.3-1.2-.4,0,0,0,0,0,0-.4-.1-.8-.3-1.2-.4-.4-.1-.8-.3-1.2-.4-.4-.1-.8-.2-1.2-.4-.4-.1-.8-.2-1.2-.4-.4-.1-.8-.2-1.2-.4-.4-.1-.8-.2-1.2-.4-.4-.1-.8-.2-1.2-.4-.4-.1-.8-.3-1.2-.4-.4-.1-.8-.3-1.2-.4-.4-.2-.8-.3-1.1-.5-.4-.2-.8-.4-1.1-.6-.4-.2-.8-.4-1.1-.7-.4-.3-.7-.6-1-.9-.4-.4-.7-.8-1-1.2-.4-.6-.6-1.2-.7-2,0-.5-.2-1-.2-1.6,0-2.1.7-3.7,1.9-4.9.5-.5,1-.8,1.6-1.2.4-.2.9-.5,1.4-.6.4-.2.9-.3,1.4-.4.4,0,.9-.2,1.3-.2.4,0,.9,0,1.3-.1.4,0,.8,0,1.3,0s0,0,0,0c.4,0,.8,0,1.3,0,.4,0,.8,0,1.3,0,.4,0,.8,0,1.2.1.4,0,.8.1,1.2.2.4,0,.8.1,1.2.2.4,0,.8.2,1.2.2.4,0,.8.2,1.2.3.4,0,.8.2,1.2.3.4.1.8.2,1.2.3.4.1.8.2,1.2.4.4.1.8.2,1.2.4.4.1.8.3,1.2.4.4.1.8.3,1.2.4.4.2.8.3,1.2.5.4.2.8.3,1.1.5.4.2.8.3,1.1.5.4.2.8.4,1.1.6.4.2.7.4,1.1.6.3.1.5.3.8.4.1,0,.2,0,.4.1.5,0,1,0,1.4-.4.2-.2.4-.5.4-.9v-10.2s0-3.6,0-3.6c0-.2,0-.4-.2-.6-.1-.3-.3-.5-.6-.7-.1,0-.3-.1-.4-.2-.4-.2-.8-.3-1.1-.5-.4-.2-.7-.4-1.1-.5-.4-.2-.8-.3-1.2-.4-.4-.1-.8-.3-1.2-.4-.4-.1-.8-.3-1.2-.4-.4-.1-.8-.2-1.2-.4-.4-.1-.8-.2-1.2-.4-.4-.1-.8-.2-1.2-.3-.4-.1-.8-.2-1.2-.3-.4,0-.8-.2-1.2-.3-.4,0-.8-.2-1.2-.2-.4,0-.8-.2-1.2-.2-.4,0-.8-.1-1.2-.2-.4,0-.8-.1-1.2-.2-.4,0-.8,0-1.2-.1-.4,0-.8,0-1.2-.1-.4,0-.8,0-1.3,0-.4,0-.8,0-1.3,0-.4,0-.9,0-1.3,0,0,0,0,0-.1,0-.4,0-.8,0-1.2,0-.4,0-.9,0-1.3,0-.4,0-.9,0-1.3,0-.4,0-.9,0-1.3.1-.4,0-.9.1-1.3.2-.5,0-.9.2-1.3.2-.5,0-.9.2-1.4.3-.5.1-.9.2-1.4.4-.5.1-.9.3-1.4.4-.5.2-1,.3-1.4.5-.5.2-1,.4-1.4.6-.5.2-1,.5-1.5.7-.5.3-1,.6-1.5.9-.5.3-1.1.7-1.6,1.1-.6.4-1.1.9-1.6,1.4-.6.6-1.2,1.2-1.8,1.8-.8.9-1.4,1.9-2,2.9-2,3.3-3.1,7.3-3.1,11.8,0,.1,0,.3,0,.4,0,1.3,0,2.4.2,3.6.1.9.3,1.8.6,2.7.2.7.4,1.4.7,2.1.2.6.5,1.2.8,1.7.3.5.6,1,.9,1.5.3.4.6.9.9,1.3.3.4.6.8,1,1.1.3.3.7.7,1,1,.3.3.7.6,1,.9.3.3.7.6,1.1.8.4.3.7.5,1.1.8.4.2.7.5,1.1.7.4.2.7.4,1.1.6.4.2.7.4,1.1.6.4.2.7.4,1.1.6.4.2.8.4,1.1.5.4.2.8.3,1.1.5.4.2.8.3,1.2.5.4.1.8.3,1.2.4.4.1.8.3,1.2.4.4.1.8.3,1.2.4,0,0,0,0,.1,0,.4.1.7.2,1,.3.4.1.8.2,1.2.4.4.1.8.2,1.2.4.4.1.8.2,1.2.3.4.1.8.2,1.2.3.4.1.8.2,1.2.3.4.1.8.2,1.2.4.4.1.8.3,1.2.4.4.1.8.3,1.2.4.4.1.8.3,1.2.4.4.2.8.3,1.1.5.4.2.8.4,1.1.6.4.2.7.5,1.1.7.4.3.7.6,1,1,.4.4.7.8.9,1.3.3.7.6,1.5.7,2.3,0,.4,0,.7,0,1.1,0,2.1-.6,3.8-1.7,5.1-.5.5-1,1-1.7,1.4-.5.3-.9.5-1.5.8-.4.2-.9.3-1.4.5-.4.1-.9.2-1.4.3-.4,0-.9.1-1.3.2-.4,0-.9,0-1.3,0-.3,0-.6,0-.8,0h-17.6c-.9,4.9-3.4,9.5-7.4,12.9-1.2,1-2.4,1.9-3.8,2.6h28.5c.3,0,.5,0,.8,0,.4,0,.9,0,1.3,0,.4,0,.9,0,1.3,0,.4,0,.9,0,1.3-.1.4,0,.9-.1,1.3-.2.5,0,.9-.1,1.3-.2.5,0,.9-.2,1.3-.3.5-.1.9-.2,1.4-.3.5-.1.9-.3,1.4-.4.5-.1.9-.3,1.4-.5.5-.2,1-.4,1.4-.6.5-.2,1-.4,1.5-.7.5-.3,1-.5,1.5-.8.5-.3,1-.6,1.5-.9.6-.4,1.1-.8,1.6-1.2.6-.5,1.1-1,1.7-1.5,4.4-4.2,6.9-10.1,6.9-17.2s-.2-4.2-.7-6Z"/>
  <path class="st1" d="M134.1,65.6c0,0-.1,0-.2.1,0,0-.2.2-.3.3,0,0,0,0,0,0,0,0,0,0,0,0-.5.3-1.2.7-2,.8,0,0,0,0,0,0,0,0-.1,0-.2,0s-.2,0-.3,0c0,0,0,0-.1,0,0,0,0,0,0,0-.1,0-.2,0-.4,0,0,0-.2,0-.2,0-.1,0-.3,0-.4-.2,0,0,0,0-.1,0,0,0-.1,0-.2,0,0,0-.2,0-.3-.2-.2-.1-.4-.3-.6-.4l-.3-.2-.8-.7-1-.9-.2-.2-1.6-1.3-.3-.2-.5-.4-2.9-2.4-.8-.7-1-.9h-.2c0-.1-1.7-1.5-1.7-1.5l-.2-.2-.3-.2-8.9-7.4-.3-.2-.4-.4-8.7-7.2-.3-.3-.5-.4-2.3-2-7.9,13.6h0s.5.4.5.4l.9.7.7.6,1,.9,1,.9,1,.9.4.3,1.2,1,.5.4.9.7,2.2,1.8h0s1,.9,1,.9l.5.4,5.5,4.6.3.2.3.3,13,10.8c3.7,3.1,8.2,4.6,12.6,4.6s9-1.6,12.8-4.8c3.3-2.8,5.5-6.6,6.3-10.7.1-.5.2-1,.3-1.6,0,0,0,0,0,0,0-.5.1-1.1.1-1.6,0-.7,0-1.3,0-2,0,0,0,0,0-.1,0-.7,0-1.3-.2-2h0c0-.4-.1-.8-.2-1.3,0,0,0-.1,0-.2,0-.4-.2-.8-.3-1.2-.2-.7-.4-1.4-.7-2.1,0,0,0,0,0,0-.2-.6-.5-1.2-.8-1.7-.1-.3-.2-.5-.4-.8l-.5-.8-.9-1.5-.9-1.5-.9-1.5-.9-1.5-.9-1.5-.9-1.5-.9-1.5-.9-1.5-.9-1.5-.9-1.5-.9-1.5-.9-1.5-.9-1.5-.9-1.5-.8-1.3h0s0,0,0,0h0s-.9-1.5-.9-1.5l-.9-1.5-.9-1.5-.9-1.5-.9-1.5-.9-1.5-.9-1.5-.9-1.5-.9-1.5-.9-1.5-.9-1.5-.9-1.5-.5-.9c-.1-.2-.2-.4-.4-.6-.3-.5-.6-.9-.9-1.4-.1-.2-.2-.3-.4-.5-.2-.2-.4-.5-.6-.7-.3-.4-.7-.7-1-1.1-.3-.3-.7-.6-1-.9-.3-.3-.7-.6-1.1-.8-.4-.3-.7-.5-1.1-.8-.4-.2-.7-.5-1.1-.7-.4-.2-.7-.4-1.1-.6-.4-.2-.8-.3-1.1-.5-.4-.2-.8-.3-1.2-.4-.4-.1-.8-.2-1.2-.3-.4-.1-.8-.2-1.2-.3-.4,0-.8-.1-1.2-.2-.4,0-.8,0-1.2-.1-.4,0-.8,0-1.2,0,0,0,0,0-.1,0-.4,0-.9,0-1.3,0-.4,0-.9,0-1.3.2-.5,0-.9.2-1.3.3-.5.1-.9.2-1.4.4-.5.2-.9.3-1.4.5-.5.2-1,.4-1.5.7-.5.3-1,.6-1.5.9-.5.3-1.1.7-1.6,1.1-.6.5-1.1,1-1.7,1.5-.4.4-.8.9-1.2,1.4-.2.3-.4.6-.6.8-.4.5-.7,1-1,1.6l-4,7-1.9,3.4-2.4,4.1-1.3,2.2-8.1,14h0c0,.1-1.1,2-1.1,2l-2.4,4.1-1.3,2.2-1.6,2.7-1.7,2.9c-.5.9-.9,1.7-1.3,2.6-1.1,2.7-1.5,5.7-1.2,8.5,0,1,.3,2,.5,2.9.2.7.4,1.5.7,2.2.2.6.5,1.2.8,1.8,0,.2.2.4.3.5.2.3.4.7.6,1,.3.5.6.9.9,1.3.3.4.6.8,1,1.2.3.4.7.7,1,1,.3.3.7.6,1,.9.3.3.7.5,1.1.8.4.2.7.5,1.1.7.4.2.7.4,1.1.6.4.2.7.4,1.1.5.4.2.8.3,1.2.5.4.1.8.3,1.2.4.4.1.8.2,1.2.3.4,0,.8.2,1.2.2.4,0,.8.1,1.2.2.4,0,.8,0,1.3,0,.3,0,.6,0,.9,0h9.3s1.3,0,1.3,0h15.3s1.3,0,1.3,0h11.4c-1.2-.7-2.4-1.5-3.6-2.4l-15.7-13.1h-19.9s0,0-.1,0c-.5,0-.9-.1-1.2-.2-.5-.2-.8-.5-1.1-.7-.2-.2-.4-.5-.5-.7,0,0,0,0,0,0-.1-.2-.3-.5-.3-.8-.2-.7-.2-1.6.3-2.5l.6-1,2.4-4.1,2-3.5.5-.8h0c0-.1,1.4-2.6,1.4-2.6l7.9-13.6,1.5-2.6.8-1.4,1.7-2.9,7-12c.2-.3.4-.6.6-.8.5-.4,1-.7,1.5-.8.3,0,.5,0,.7,0h0s0,0,0,0c0,0,0,0,0,0,.1,0,.3,0,.5,0,.4,0,.8.2,1.2.4.4.2.7.5,1,.9,0,0,.1.2.2.3l11.3,19.5h0s.7,1.2.7,1.2l.9,1.5.9,1.5.9,1.5.9,1.5.9,1.5.9,1.5.9,1.5.9,1.5.9,1.5.9,1.5.9,1.5.9,1.5.9,1.5.9,1.5.8,1.3c1.5,2.6,0,4.4-.8,5.1Z"/>
  <g>
    <g>
      <path class="st0" d="M271.7,49.7l6-7.2c4.2,3.4,8.5,5.6,13.8,5.6s6.7-1.7,6.7-4.4h0c0-2.7-1.6-4-9.3-6-9.3-2.4-15.3-5-15.3-14.1h0c0-8.5,6.7-14.1,16.2-14.1s12.5,2.1,17.2,5.9l-5.3,7.7c-4.1-2.8-8.1-4.6-12-4.6s-5.9,1.8-5.9,4h0c0,3.2,2,4.2,10,6.2,9.4,2.4,14.7,5.8,14.7,13.9h0c0,9.3-7,14.5-17,14.5s-14.1-2.4-19.6-7.4Z"/>
      <path class="st0" d="M318,10.2h11l12.2,19.6,12.2-19.6h11v46.2h-10.1v-30.2l-13,19.8h-.3l-12.9-19.6v30h-10V10.2Z"/>
      <path class="st0" d="M391.5,9.9h9.4l19.8,46.6h-10.6l-4.2-10.4h-19.6l-4.2,10.4h-10.4l19.8-46.6ZM402.2,37.1l-6.1-15-6.1,15h12.3Z"/>
      <path class="st0" d="M428.1,10.2h21.1c5.9,0,10.4,1.7,13.5,4.7,2.6,2.6,4,6.2,4,10.6h0c0,7.6-4,12.3-9.9,14.5l11.3,16.5h-11.9l-9.9-14.8h-8v14.8h-10.2V10.2ZM448.6,32.7c5,0,7.8-2.6,7.8-6.5h0c0-4.5-3-6.7-8-6.7h-10.1v13.3h10.3Z"/>
      <path class="st0" d="M487.2,19.6h-14.1v-9.4h38.3v9.4h-14.1v36.9h-10.2V19.6Z"/>
    </g>
    <g>
      <path class="st2" d="M276.4,62.7h2l4.2,9.9h-2.2l-.9-2.2h-4.1l-.9,2.2h-2.2l4.2-9.9ZM278.7,68.5l-1.3-3.2-1.3,3.2h2.6Z"/>
      <path class="st2" d="M285.7,67.7h0c0-2.8,2.1-5.1,5.1-5.1s2.9.6,3.9,1.5l-1.4,1.6c-.8-.7-1.5-1.1-2.5-1.1-1.6,0-2.8,1.4-2.8,3h0c0,1.7,1.2,3.1,2.8,3.1s1.8-.4,2.6-1.1l1.4,1.4c-1,1.1-2.1,1.7-4,1.7-2.9,0-5-2.2-5-5Z"/>
      <path class="st2" d="M298.4,67.7h0c0-2.8,2.1-5.1,5.1-5.1s2.9.6,3.9,1.5l-1.4,1.6c-.8-.7-1.5-1.1-2.5-1.1-1.6,0-2.8,1.4-2.8,3h0c0,1.7,1.2,3.1,2.8,3.1s1.8-.4,2.6-1.1l1.4,1.4c-1,1.1-2.1,1.7-4,1.7-2.9,0-5-2.2-5-5Z"/>
      <path class="st2" d="M311,67.7h0c0-2.8,2.2-5.1,5.2-5.1s5.2,2.3,5.2,5h0c0,2.8-2.2,5.1-5.2,5.1s-5.2-2.3-5.2-5ZM319.1,67.7h0c0-1.7-1.2-3.1-3-3.1s-2.9,1.4-2.9,3h0c0,1.7,1.2,3.1,3,3.1s2.9-1.4,2.9-3Z"/>
      <path class="st2" d="M325.9,68.4v-5.6h2.2v5.5c0,1.6.8,2.4,2.1,2.4s2.1-.8,2.1-2.3v-5.6h2.2v5.5c0,3-1.7,4.4-4.3,4.4s-4.2-1.5-4.2-4.3Z"/>
      <path class="st2" d="M339.4,62.8h2l4.6,6v-6h2.1v9.8h-1.8l-4.7-6.2v6.2h-2.1v-9.8Z"/>
      <path class="st2" d="M355.3,64.8h-3v-2h8.1v2h-3v7.8h-2.2v-7.8Z"/>
      <path class="st2" d="M364.6,62.8h2.2v9.8h-2.2v-9.8Z"/>
      <path class="st2" d="M371.9,62.8h2l4.6,6v-6h2.1v9.8h-1.8l-4.7-6.2v6.2h-2.1v-9.8Z"/>
      <path class="st2" d="M385.3,67.7h0c0-2.8,2.2-5.1,5.1-5.1s2.8.5,3.8,1.3l-1.4,1.6c-.8-.6-1.4-1-2.6-1s-2.8,1.4-2.8,3h0c0,1.8,1.2,3.1,3,3.1s1.5-.2,2-.6v-1.4h-2.2v-1.9h4.2v4.2c-1,.9-2.4,1.6-4.2,1.6-3,0-5.1-2.1-5.1-5Z"/>
      <path class="st2" d="M405.5,71.2l1.3-1.5c.9.7,1.8,1.2,2.9,1.2s1.4-.3,1.4-.9h0c0-.6-.3-.9-2-1.3-2-.5-3.2-1-3.2-3h0c0-1.8,1.4-3,3.4-3s2.6.4,3.6,1.2l-1.1,1.6c-.9-.6-1.7-1-2.5-1s-1.3.4-1.3.9h0c0,.7.4.9,2.1,1.3,2,.5,3.1,1.2,3.1,2.9h0c0,2-1.5,3.1-3.6,3.1s-3-.5-4.1-1.6Z"/>
      <path class="st2" d="M417.2,67.7h0c0-2.8,2.2-5.1,5.2-5.1s5.2,2.3,5.2,5h0c0,2.8-2.2,5.1-5.2,5.1s-5.2-2.3-5.2-5ZM425.4,67.7h0c0-1.7-1.2-3.1-3-3.1s-2.9,1.4-2.9,3h0c0,1.7,1.2,3.1,3,3.1s2.9-1.4,2.9-3Z"/>
      <path class="st2" d="M432.2,62.8h2.2v7.8h4.9v2h-7v-9.8Z"/>
      <path class="st2" d="M443.2,68.4v-5.6h2.2v5.5c0,1.6.8,2.4,2.1,2.4s2.1-.8,2.1-2.3v-5.6h2.2v5.5c0,3-1.7,4.4-4.3,4.4s-4.2-1.5-4.2-4.3Z"/>
      <path class="st2" d="M458.8,64.8h-3v-2h8.1v2h-3v7.8h-2.2v-7.8Z"/>
      <path class="st2" d="M468.2,62.8h2.2v9.8h-2.2v-9.8Z"/>
      <path class="st2" d="M475,67.7h0c0-2.8,2.2-5.1,5.2-5.1s5.2,2.3,5.2,5h0c0,2.8-2.2,5.1-5.2,5.1s-5.2-2.3-5.2-5ZM483.2,67.7h0c0-1.7-1.2-3.1-3-3.1s-2.9,1.4-2.9,3h0c0,1.7,1.2,3.1,3,3.1s2.9-1.4,2.9-3Z"/>
      <path class="st2" d="M490,62.8h2l4.6,6v-6h2.1v9.8h-1.8l-4.7-6.2v6.2h-2.1v-9.8Z"/>
      <path class="st2" d="M503.1,71.2l1.3-1.5c.9.7,1.8,1.2,2.9,1.2s1.4-.3,1.4-.9h0c0-.6-.3-.9-2-1.3-2-.5-3.2-1-3.2-3h0c0-1.8,1.4-3,3.4-3s2.6.4,3.6,1.2l-1.1,1.6c-.9-.6-1.7-1-2.5-1s-1.3.4-1.3.9h0c0,.7.4.9,2.1,1.3,2,.5,3.1,1.2,3.1,2.9h0c0,2-1.5,3.1-3.6,3.1s-3-.5-4.1-1.6Z"/>
    </g>
  </g>
  <rect class="st0" x="234.7" y=".3" width="1.7" height="81.7"/>
</svg>