<?xml version="1.0" encoding="UTF-8"?>
<svg id="Layer_2" xmlns="http://www.w3.org/2000/svg" version="1.1" viewBox="0 0 383.9 236.4">
  <!-- Generator: Adobe Illustrator 30.6.0, SVG Export Plug-In . SVG Version: 2.1.4 Build 109)  -->
  <defs>
    <style>
      .st0 {
        fill: #6e6e6e;
      }
    </style>
  </defs>
  <path d="M122.2,60.9l2,1.7,2,1.7,2,1.7,2,1.7,2,1.7,2,1.7,2,1.7h.1c0,0,15.1-26.1,15.1-26.1l-.8-.7-2-1.7-2-1.7-2-1.7-2-1.7-2-1.7-2-1.7-2-1.7-2-1.7-2-1.7-2-1.7-2-1.7-.6-.5c-.5-.4-.9-.7-1.4-1.1-.7-.5-1.3-1.1-2-1.6-.7-.5-1.4-1-2.1-1.5-.7-.5-1.4-1-2.1-1.5-.7-.5-1.4-.9-2.1-1.4-.7-.5-1.4-.9-2.1-1.4-.7-.4-1.4-.9-2.1-1.3-.7-.4-1.4-.9-2.1-1.3-.7-.4-1.4-.8-2.1-1.2-.7-.4-1.4-.8-2.1-1.2-.7-.4-1.4-.7-2.2-1.1-.7-.4-1.4-.7-2.2-1.1-.7-.3-1.5-.7-2.2-1-.7-.3-1.5-.7-2.2-1-.7-.3-1.5-.6-2.2-.9-.7-.3-1.5-.6-2.2-.9-.7-.3-1.5-.6-2.2-.8-.7-.3-1.5-.5-2.3-.8-.8-.2-1.5-.5-2.3-.7-.8-.2-1.5-.4-2.3-.7-.8-.2-1.5-.4-2.3-.6-.8-.2-1.5-.4-2.3-.6s-1.5-.4-2.3-.6c-.8-.2-1.6-.3-2.3-.5-.8-.2-1.6-.3-2.3-.5-.8-.1-1.6-.2-2.4-.4-.8-.1-1.6-.3-2.4-.4-.8-.1-1.6-.2-2.4-.3-.8,0-1.6-.2-2.4-.3-.8,0-1.6-.1-2.4-.2-.8,0-1.6-.1-2.4-.2-.8,0-1.6,0-2.4,0-.8,0-1.6,0-2.4,0-.3,0-.7,0-1,0s-1,0-1.4,0c-.8,0-1.7,0-2.5,0-.8,0-1.7,0-2.5.2-.8,0-1.7.1-2.5.2-.9,0-1.7.2-2.5.3-.9.1-1.7.3-2.6.4-.9.2-1.7.4-2.6.6-.9.2-1.8.4-2.6.7-.9.3-1.8.5-2.7.8-.9.3-1.8.6-2.7,1-.9.4-1.9.8-2.8,1.2-1,.4-1.9.9-2.8,1.4-1,.5-2,1.1-2.9,1.6-1,.6-2,1.3-3,2-1.1.8-2.1,1.6-3.1,2.5-1.2,1-2.3,2.1-3.3,3.3-1.3,1.5-2.6,3-3.7,4.7C2.7,28.2,0,36.9,0,46.9s0,1.6,0,2.3c.1,2.3.4,4.4.7,6.5.3,1.7.7,3.2,1.2,4.8.4,1.3.9,2.6,1.5,3.8.5,1.1,1,2.2,1.6,3.2.5.9,1.1,1.8,1.7,2.7.6.8,1.2,1.6,1.8,2.4.6.7,1.2,1.4,1.9,2.1.6.6,1.3,1.3,2,1.9.6.6,1.3,1.1,2,1.7.7.5,1.3,1.1,2,1.6.7.5,1.4.9,2.1,1.4.7.4,1.4.9,2.1,1.3.7.4,1.4.8,2.1,1.2.7.4,1.4.8,2.2,1.1.7.4,1.4.7,2.2,1,.7.3,1.5.7,2.2,1,.7.3,1.5.6,2.2.9.7.3,1.5.6,2.2.9.7.3,1.5.6,2.2.8.7.3,1.5.5,2.2.8.6.2,1.2.4,1.7.6.2,0,.3.1.5.2.8.2,1.5.5,2.3.7.8.2,1.5.5,2.3.7.8.2,1.5.5,2.3.7.8.2,1.5.4,2.3.7.8.2,1.5.4,2.3.7.8.2,1.5.5,2.3.7.8.2,1.5.5,2.3.7.8.2,1.5.5,2.3.7.8.3,1.5.5,2.2.8.8.3,1.5.6,2.2.9.8.3,1.5.7,2.2,1,.8.4,1.5.8,2.1,1.2.7.5,1.4,1,2,1.6.7.6,1.4,1.3,1.9,2,.7.9,1.2,2,1.6,3.1.6,1.6.9,3.3.9,5.3s0,.5,0,.7c0,2.8-.8,5.2-1.9,7.2-.9,1.6-2.1,2.9-3.5,4-.9.7-1.9,1.3-2.9,1.8-.9.4-1.8.8-2.7,1.1-.8.3-1.7.5-2.6.7-.8.2-1.7.3-2.6.4-.8.1-1.7.2-2.5.2-.8,0-1.6,0-2.4,0s0,0,0,0c-.8,0-1.6,0-2.4,0-.8,0-1.6,0-2.4-.2-.8,0-1.6-.2-2.4-.3-.8,0-1.6-.2-2.4-.3-.8-.1-1.6-.2-2.4-.4-.8-.1-1.5-.3-2.3-.5-.8-.2-1.5-.3-2.3-.5-.8-.2-1.5-.4-2.3-.6-.8-.2-1.5-.4-2.3-.6-.8-.2-1.5-.4-2.3-.7-.7-.2-1.5-.5-2.3-.7-.7-.2-1.5-.5-2.2-.8-.7-.3-1.5-.5-2.2-.8-.7-.3-1.5-.6-2.2-.9-.7-.3-1.5-.6-2.2-.9-.7-.3-1.5-.7-2.2-1-.7-.3-1.5-.7-2.2-1-.7-.4-1.4-.7-2.2-1.1-.7-.4-1.4-.8-2.1-1.2-.4-.2-.7-.4-1.1-.6-.4-.2-.7-.3-1.1-.4-1.2-.2-2.3.3-2.8,1.4l-.3,1.1c0,.1,0,.2,0,.3v27.2c0,.1,0,.2,0,.3,0,.9.6,1.8,1.5,2.2.1,0,.2,0,.3.1.7.3,1.5.6,2.2,1,.7.3,1.5.7,2.2,1,.7.3,1.5.6,2.2.9.7.3,1.5.6,2.2.8.7.3,1.5.6,2.2.8.7.2,1.5.5,2.3.7s1.5.5,2.3.7c.8.2,1.5.4,2.3.6.8.2,1.5.4,2.3.6s1.5.4,2.3.6c.8.2,1.6.3,2.3.5.8.2,1.6.3,2.3.4.8.1,1.6.3,2.3.4.8.1,1.6.2,2.4.3s1.6.2,2.4.3c.8,0,1.6.2,2.4.2.8,0,1.6.1,2.4.2.8,0,1.6.1,2.4.2.8,0,1.6,0,2.4,0,.8,0,1.6,0,2.4,0,0,0,0,0,0,0,.8,0,1.6,0,2.4,0,.8,0,1.7,0,2.5-.1.8,0,1.7-.1,2.5-.2.8,0,1.7-.2,2.5-.3.9-.1,1.7-.2,2.5-.3.9-.1,1.7-.3,2.6-.4.9-.2,1.7-.4,2.6-.6.9-.2,1.8-.4,2.6-.7.9-.3,1.8-.5,2.7-.8.9-.3,1.8-.6,2.7-1,.9-.4,1.9-.7,2.8-1.1,1-.4,1.9-.9,2.8-1.3,1-.5,1.9-1,2.9-1.6,1-.6,2-1.3,3-2,1.1-.8,2.1-1.5,3.1-2.4,1.1-1,2.2-2,3.3-3.1,1.3-1.4,2.5-2.8,3.6-4.3,1.8-2.5,3.3-5.2,4.6-8.1,1.7-3.9,2.8-8.2,3.4-12.8.3-2.1.4-4.3.4-6.6s0-2.5-.1-3.7c-.1-2.2-.4-4.2-.8-6.2-.3-1.6-.7-3.2-1.2-4.6-.4-1.3-.9-2.5-1.5-3.7-.5-1.1-1-2.1-1.6-3.1-.5-.9-1.1-1.8-1.7-2.7-.6-.8-1.2-1.6-1.8-2.4-.6-.7-1.2-1.4-1.9-2.1-.6-.6-1.3-1.3-2-1.9-.6-.6-1.3-1.2-2-1.7-.7-.5-1.3-1.1-2-1.6-.7-.5-1.4-1-2.1-1.4-.7-.4-1.4-.9-2.1-1.3-.7-.4-1.4-.8-2.1-1.2-.7-.4-1.4-.8-2.2-1.1-.7-.4-1.4-.7-2.2-1.1-.7-.3-1.5-.7-2.2-1-.7-.3-1.5-.6-2.2-.9-.7-.3-1.5-.6-2.2-.9-.7-.3-1.5-.6-2.2-.8-.7-.3-1.5-.5-2.2-.8-.7-.3-1.5-.5-2.3-.8-.3,0-.5-.2-.8-.3-.5-.2-1-.3-1.5-.5-.8-.2-1.5-.5-2.3-.7-.8-.2-1.5-.5-2.3-.7-.8-.2-1.5-.5-2.3-.7-.8-.2-1.5-.5-2.3-.7-.8-.2-1.5-.5-2.3-.7-.8-.2-1.5-.5-2.3-.7-.8-.2-1.5-.5-2.3-.7-.8-.3-1.5-.5-2.2-.8-.8-.3-1.5-.6-2.2-.9-.8-.3-1.5-.7-2.2-1-.8-.4-1.5-.8-2.1-1.2-.7-.5-1.4-1-2.1-1.5-.7-.6-1.4-1.3-1.9-2-.7-.9-1.2-2-1.6-3.1-.5-1.4-.7-2.9-.7-4.7s.1-1.9.3-2.8c.1-.8.3-1.6.6-2.3.8-2.1,2.1-3.8,3.8-5.2.9-.7,1.9-1.3,2.9-1.8.9-.4,1.8-.8,2.7-1.1.8-.3,1.7-.5,2.6-.7.8-.2,1.7-.3,2.6-.4.8,0,1.7-.2,2.5-.2.6,0,1.3,0,2,0s.3,0,.5,0c.8,0,1.6,0,2.4,0,.8,0,1.6,0,2.4.1.8,0,1.6,0,2.4.2.8,0,1.6.2,2.4.3.8,0,1.6.2,2.4.3.8.1,1.6.2,2.4.4.8.1,1.6.3,2.3.5.8.2,1.6.3,2.3.5.8.2,1.5.4,2.3.6.8.2,1.5.4,2.3.6.8.2,1.5.4,2.3.7.8.2,1.5.5,2.3.8.7.3,1.5.5,2.2.8.7.3,1.5.6,2.2.9.7.3,1.5.6,2.2,1,.7.3,1.5.7,2.2,1,.7.4,1.5.7,2.2,1.1.7.4,1.4.8,2.1,1.2.7.4,1.4.8,2.1,1.2.7.4,1.4.8,2.1,1.3.7.4,1.4.9,2.1,1.4.7.5,1.4,1,2.1,1.4.7.5,1.4,1,2.1,1.5.7.5,1.4,1.1,2,1.6.3.2.5.4.8.6l1.2,1,2,1.7,2,1.7,2,1.7,2,1.7,2,1.7,2,1.7Z"/>
  <path d="M382.6,98.8c-.4-1.5-.8-2.9-1.3-4.3-.5-1.2-1-2.4-1.5-3.5-.5-1-1.1-2-1.7-3-.6-.9-1.2-1.7-1.8-2.6-.6-.8-1.2-1.5-1.9-2.3-.6-.7-1.3-1.4-1.9-2-.6-.6-1.3-1.2-2-1.8-.7-.6-1.3-1.1-2-1.6-.7-.5-1.4-1-2.1-1.5-.7-.5-1.4-.9-2.1-1.4-.7-.4-1.4-.9-2.1-1.3-.7-.4-1.4-.8-2.1-1.2-.7-.4-1.4-.7-2.2-1.1-.7-.4-1.4-.7-2.2-1-.7-.3-1.5-.7-2.2-1-.7-.3-1.5-.6-2.2-.9-.7-.3-1.5-.6-2.2-.9-.7-.3-1.5-.6-2.2-.8-.7-.3-1.5-.5-2.2-.8-.7-.3-1.5-.5-2.3-.8,0,0,0,0,0,0-.8-.3-1.5-.5-2.2-.7-.8-.2-1.5-.5-2.3-.7-.8-.2-1.5-.5-2.3-.7-.8-.2-1.5-.5-2.3-.7-.8-.2-1.5-.5-2.3-.7-.8-.2-1.5-.5-2.3-.7-.8-.2-1.5-.5-2.3-.7-.8-.2-1.5-.5-2.3-.7-.8-.3-1.5-.5-2.2-.8-.8-.3-1.5-.6-2.2-.9-.8-.3-1.5-.7-2.2-1.1-.7-.4-1.5-.8-2.1-1.3-.7-.5-1.4-1.1-2-1.7-.7-.7-1.3-1.5-1.8-2.4-.7-1.1-1.2-2.4-1.4-3.8-.2-1-.3-2-.3-3.1,0-4,1.3-7.1,3.6-9.4.9-.9,1.9-1.6,3.1-2.3.9-.5,1.8-.9,2.8-1.2.8-.3,1.7-.5,2.7-.7.8-.2,1.7-.3,2.6-.4.8-.1,1.7-.2,2.5-.2.8,0,1.6,0,2.4,0s0,0,0,0c.8,0,1.6,0,2.4,0,.8,0,1.6,0,2.4.2.8,0,1.6.2,2.4.3.8,0,1.6.2,2.4.3.8.1,1.6.3,2.3.4.8.1,1.5.3,2.3.5.8.2,1.5.3,2.3.5.8.2,1.5.4,2.3.6.8.2,1.5.4,2.3.6.8.2,1.5.4,2.3.7.8.2,1.5.5,2.3.7.7.3,1.5.5,2.2.8.7.3,1.5.6,2.2.9.7.3,1.5.6,2.2.9.7.3,1.5.6,2.2.9.7.3,1.5.7,2.2,1,.7.3,1.4.7,2.2,1.1.7.4,1.4.7,2.2,1.1.5.3,1,.5,1.5.8.2.1.5.2.7.2.9.2,2-.2,2.7-.9.4-.5.7-1,.7-1.8v-19.6s0-7,0-7c0-.4-.1-.8-.3-1.2-.3-.6-.7-1-1.2-1.3-.3-.1-.5-.2-.8-.4-.7-.3-1.5-.7-2.2-1-.7-.3-1.4-.7-2.2-1-.7-.3-1.5-.6-2.2-.8-.7-.3-1.5-.6-2.2-.8-.7-.3-1.5-.5-2.3-.8-.8-.2-1.5-.5-2.3-.7-.8-.2-1.5-.5-2.3-.7-.8-.2-1.5-.4-2.3-.6-.8-.2-1.5-.4-2.3-.6-.8-.2-1.5-.3-2.3-.5-.8-.2-1.6-.3-2.3-.4-.8-.1-1.6-.3-2.3-.4-.8-.1-1.6-.2-2.4-.3-.8-.1-1.6-.2-2.4-.3-.8,0-1.6-.2-2.4-.3-.8,0-1.6-.1-2.4-.2-.8,0-1.6-.1-2.4-.2-.8,0-1.6,0-2.4,0-.8,0-1.6,0-2.4,0,0,0-.2,0-.2,0-.8,0-1.5,0-2.2,0-.8,0-1.7,0-2.5.1-.8,0-1.7.1-2.5.2-.9,0-1.7.2-2.5.3-.9.1-1.7.2-2.6.4-.9.1-1.7.3-2.6.5-.9.2-1.8.4-2.6.6-.9.2-1.8.5-2.6.7-.9.3-1.8.5-2.7.8-.9.3-1.8.7-2.7,1-.9.4-1.9.8-2.8,1.2-1,.5-1.9.9-2.8,1.4-1,.6-2,1.1-2.9,1.7-1,.7-2,1.4-3,2.1-1.1.8-2.2,1.7-3.2,2.7-1.2,1.1-2.3,2.3-3.4,3.6-1.5,1.7-2.8,3.6-3.9,5.5-3.8,6.4-5.9,14.1-6,22.7,0,.2,0,.5,0,.7,0,2.4.2,4.7.5,6.9.3,1.8.6,3.6,1.1,5.2.4,1.4.9,2.8,1.4,4.1.5,1.2,1,2.3,1.6,3.4.5,1,1.1,1.9,1.7,2.9.6.9,1.2,1.7,1.8,2.5.6.8,1.2,1.5,1.9,2.2.6.7,1.3,1.3,1.9,2,.6.6,1.3,1.2,2,1.8.7.5,1.3,1.1,2,1.6.7.5,1.4,1,2.1,1.5.7.5,1.4.9,2.1,1.3.7.4,1.4.8,2.1,1.2.7.4,1.4.8,2.2,1.1.7.4,1.4.7,2.2,1.1.7.3,1.5.7,2.2,1,.7.3,1.5.6,2.2.9.7.3,1.5.6,2.2.9.7.3,1.5.6,2.2.8.7.3,1.5.5,2.2.8.7.3,1.5.5,2.3.8,0,0,.2,0,.3,0,.7.2,1.3.4,2,.6.8.2,1.5.5,2.3.7.8.2,1.5.5,2.3.7.8.2,1.5.5,2.3.7.8.2,1.5.5,2.3.7.8.2,1.5.5,2.3.7.8.2,1.5.5,2.3.7.8.2,1.5.5,2.3.7.8.3,1.5.5,2.2.8.8.3,1.5.6,2.2.9.8.3,1.5.6,2.2,1,.8.4,1.5.8,2.1,1.2.7.4,1.4.9,2.1,1.4.7.6,1.4,1.2,2,1.9.7.8,1.3,1.6,1.8,2.6.7,1.3,1.1,2.8,1.3,4.5,0,.7.1,1.4.1,2.1,0,4.1-1.2,7.4-3.3,9.8-.9,1.1-2,2-3.2,2.7-.9.6-1.8,1.1-2.8,1.5-.8.3-1.8.6-2.7.9-.8.2-1.7.4-2.6.6-.8.1-1.7.3-2.5.3-.8,0-1.6.1-2.5.2-.5,0-1.1,0-1.6,0h-33.8c-1.8,9.5-6.6,18.3-14.3,24.8-2.3,1.9-4.7,3.6-7.2,5h54.9c.5,0,1,0,1.5,0,.8,0,1.7,0,2.5,0,.8,0,1.7,0,2.5-.1.8,0,1.7-.1,2.5-.2.9,0,1.7-.2,2.5-.3.9-.1,1.7-.3,2.6-.4.9-.2,1.7-.3,2.6-.5.9-.2,1.8-.4,2.6-.6.9-.2,1.8-.5,2.7-.8.9-.3,1.8-.6,2.7-.9.9-.3,1.8-.7,2.7-1.1,1-.4,1.9-.8,2.8-1.3,1-.5,1.9-1,2.9-1.5,1-.6,2-1.2,2.9-1.8,1.1-.7,2.1-1.5,3.1-2.3,1.1-.9,2.2-1.8,3.2-2.8,8.4-8.2,13.2-19.4,13.2-33.1s-.5-8.1-1.3-11.6Z"/>
  <path d="M258,126.2c-.1,0-.2.2-.3.3-.2.2-.4.3-.7.5,0,0,0,0,0,0,0,0,0,0,0,0-.9.6-2.3,1.3-3.9,1.5,0,0-.1,0-.2,0-.1,0-.3,0-.4,0s-.4,0-.6,0c0,0-.2,0-.3,0,0,0,0,0-.1,0-.2,0-.4,0-.7-.1-.2,0-.3,0-.5-.1-.2,0-.5-.2-.7-.3,0,0-.2,0-.2,0,0,0-.2-.1-.3-.2-.2,0-.4-.2-.5-.3-.4-.2-.8-.5-1.2-.8l-.5-.4-1.6-1.3-2-1.7-.4-.3-3.1-2.6-.5-.5-.9-.8-5.6-4.7-1.5-1.3-2-1.7-.3-.3-3.3-2.7-.4-.4-.5-.4-17.1-14.3-.5-.4-.9-.7-16.7-13.9-.6-.5-1-.8-4.5-3.8-15.1,26.2h.1c0,0,.9.9.9.9l1.7,1.4,1.4,1.2,2,1.7,2,1.7,2,1.7.7.6,2.4,2,.9.8,1.7,1.4,4.3,3.6h.1c0,0,2,1.8,2,1.8l.9.7,10.7,8.9.5.4.6.5,25,20.9c7.2,6,15.7,8.9,24.3,8.9s17.4-3.1,24.6-9.2c6.4-5.5,10.5-12.8,12.2-20.6.2-1,.4-2,.5-3,0,0,0,0,0,0,.1-1,.2-2,.3-3.1,0-1.3,0-2.5,0-3.8,0,0,0-.1,0-.2,0-1.3-.2-2.5-.4-3.8h0c-.1-.8-.3-1.6-.4-2.4,0-.1,0-.3,0-.4-.2-.8-.3-1.5-.6-2.3-.4-1.3-.9-2.7-1.4-4,0,0,0,0,0,0-.5-1.1-1-2.3-1.6-3.4-.3-.5-.5-1-.8-1.4l-.9-1.6-1.7-2.9-1.7-2.9-1.7-2.9-1.7-2.9-1.7-2.9-1.7-2.9-1.7-2.9-1.7-2.9-1.7-2.9-1.7-2.9-1.7-2.9-1.7-2.9-1.7-2.9-1.7-2.9-1.5-2.6h0s0,0,0,0h0s-1.7-3-1.7-3l-1.7-2.9-1.7-2.9-1.7-2.9-1.7-2.9-1.7-2.9-1.7-2.9-1.7-2.9-1.7-2.9-1.7-2.9-1.7-2.9-1.7-2.9-1-1.7c-.2-.4-.5-.8-.7-1.2-.6-.9-1.1-1.8-1.8-2.6-.2-.3-.5-.6-.7-.9-.4-.5-.7-1-1.1-1.4-.6-.7-1.3-1.4-1.9-2-.6-.6-1.3-1.2-2-1.8-.7-.6-1.3-1.1-2-1.6-.7-.5-1.4-1-2.1-1.5-.7-.5-1.4-.9-2.1-1.3-.7-.4-1.4-.8-2.2-1.1-.7-.3-1.5-.7-2.2-1-.7-.3-1.5-.6-2.2-.8-.8-.2-1.5-.5-2.3-.7-.8-.2-1.5-.4-2.3-.5-.8-.1-1.6-.3-2.4-.4-.8,0-1.6-.2-2.4-.2-.7,0-1.5,0-2.2,0,0,0-.2,0-.2,0-.8,0-1.7,0-2.5.1-.9,0-1.7.2-2.5.3-.9.1-1.7.3-2.6.5-.9.2-1.8.5-2.7.7-.9.3-1.8.6-2.7,1-1,.4-1.9.8-2.8,1.3-1,.5-2,1.1-2.9,1.7-1,.7-2.1,1.4-3,2.2-1.1.9-2.2,1.9-3.2,2.9-.8.9-1.6,1.8-2.4,2.7-.4.5-.8,1.1-1.2,1.6-.7,1-1.3,2-1.9,3l-7.7,13.4-3.7,6.5-4.5,7.9-2.5,4.3-15.5,26.9-.2.3-2,3.5-4.6,7.9-2.5,4.3-3,5.2-3.3,5.6c-.9,1.6-1.8,3.3-2.4,5.1-2.1,5.3-2.8,10.9-2.3,16.4.2,1.9.5,3.8,1,5.6.4,1.4.8,2.8,1.4,4.2.5,1.2,1,2.3,1.6,3.4.2.3.3.7.5,1,.4.6.7,1.3,1.1,1.9.6.9,1.2,1.7,1.8,2.5.6.8,1.2,1.5,1.9,2.2.6.7,1.3,1.3,1.9,2,.6.6,1.3,1.2,2,1.7.7.5,1.3,1.1,2,1.5.7.5,1.4.9,2.1,1.4.7.4,1.4.8,2.1,1.2.7.4,1.4.7,2.2,1,.7.3,1.5.6,2.2.9.7.3,1.5.5,2.3.7.8.2,1.5.4,2.3.6.8.2,1.5.3,2.3.5.8.1,1.6.2,2.4.3.8,0,1.6.1,2.4.2.5,0,1.1,0,1.6,0h18s2.5,0,2.5,0h29.5s2.5,0,2.5,0h21.9c-2.4-1.3-4.7-2.9-6.8-4.7l-30.2-25.2h-38.2c0,0-.1,0-.2,0-.9,0-1.7-.2-2.3-.5-.9-.4-1.6-.9-2.1-1.4-.4-.5-.8-.9-1-1.3,0,0,0,0,0,0-.2-.4-.5-1-.7-1.6-.4-1.3-.4-3,.7-4.9l1.1-2,4.5-7.9,3.9-6.7.9-1.6.2-.3,2.7-4.7,15.1-26.2,2.8-4.9,1.6-2.8,3.2-5.6,13.4-23.2c.4-.6.8-1.2,1.2-1.6.9-.9,1.9-1.3,2.9-1.5.5-.1.9-.1,1.3-.2h.1c0,0,0,0,0,0,0,0,0,0,0,0,.3,0,.6,0,1,0,.7,0,1.5.3,2.3.8.7.4,1.4,1,2,1.8.1.2.3.4.4.6l21.7,37.5h0s1.3,2.3,1.3,2.3l1.7,2.9,1.7,2.9,1.7,2.9,1.7,2.9,1.7,2.9,1.7,2.9,1.7,2.9,1.7,2.9,1.7,2.9,1.7,2.9,1.7,2.9,1.7,2.9,1.7,2.9,1.7,2.9,1.5,2.5c2.9,4.9.1,8.4-1.5,9.9Z"/>
  <g>
    <path class="st0" d="M69.7,212.9l6.1-7.3c4.2,3.5,8.7,5.7,14.1,5.7s6.8-1.7,6.8-4.4h0c0-2.8-1.6-4.1-9.5-6.1-9.5-2.4-15.6-5.1-15.6-14.4h0c0-8.7,6.9-14.4,16.5-14.4s12.7,2.2,17.5,6l-5.4,7.8c-4.2-2.9-8.3-4.6-12.3-4.6s-6.1,1.8-6.1,4.1h0c0,3.2,2,4.2,10.2,6.3,9.6,2.5,15,5.9,15,14.2h0c0,9.5-7.1,14.8-17.3,14.8s-14.4-2.5-20-7.5Z"/>
    <path class="st0" d="M117,172.6h11.2l12.4,19.9,12.4-19.9h11.2v47.2h-10.3v-30.8l-13.3,20.1h-.3l-13.1-19.9v30.6h-10.2v-47.2Z"/>
    <path class="st0" d="M191.9,172.3h9.6l20.2,47.5h-10.8l-4.3-10.6h-19.9l-4.3,10.6h-10.6l20.2-47.5ZM202.8,200l-6.3-15.3-6.3,15.3h12.5Z"/>
    <path class="st0" d="M229.3,172.6h21.6c6,0,10.6,1.7,13.7,4.8,2.6,2.6,4,6.3,4,10.8h0c0,7.7-4.1,12.5-10.1,14.8l11.5,16.8h-12.1l-10.1-15.1h-8.2v15.1h-10.4v-47.2ZM250.1,195.5c5.1,0,8-2.7,8-6.7h0c0-4.6-3.1-6.9-8.2-6.9h-10.3v13.5h10.5Z"/>
    <path class="st0" d="M289.5,182.2h-14.4v-9.6h39.1v9.6h-14.4v37.6h-10.4v-37.6Z"/>
  </g>
  <g>
    <path d="M74.5,226.2h2l4.3,10h-2.3l-.9-2.2h-4.2l-.9,2.2h-2.2l4.3-10ZM76.8,232.1l-1.3-3.2-1.3,3.2h2.7Z"/>
    <path d="M84.1,231.3h0c0-2.9,2.1-5.2,5.2-5.2s3,.6,3.9,1.5l-1.4,1.6c-.8-.7-1.6-1.1-2.6-1.1-1.7,0-2.9,1.4-2.9,3.1h0c0,1.7,1.2,3.2,2.9,3.2s1.8-.5,2.6-1.2l1.4,1.4c-1,1.1-2.2,1.8-4.1,1.8-2.9,0-5.1-2.3-5.1-5.1Z"/>
    <path d="M96.9,231.3h0c0-2.9,2.1-5.2,5.2-5.2s3,.6,3.9,1.5l-1.4,1.6c-.8-.7-1.6-1.1-2.6-1.1-1.7,0-2.9,1.4-2.9,3.1h0c0,1.7,1.2,3.2,2.9,3.2s1.8-.5,2.6-1.2l1.4,1.4c-1,1.1-2.2,1.8-4.1,1.8-2.9,0-5.1-2.3-5.1-5.1Z"/>
    <path d="M109.8,231.3h0c0-2.9,2.2-5.2,5.3-5.2s5.3,2.3,5.3,5.1h0c0,2.9-2.2,5.2-5.3,5.2s-5.3-2.3-5.3-5.1ZM118.1,231.3h0c0-1.7-1.3-3.2-3-3.2s-3,1.4-3,3.1h0c0,1.7,1.3,3.2,3,3.2s3-1.4,3-3.1Z"/>
    <path d="M125,232v-5.7h2.2v5.6c0,1.6.8,2.5,2.2,2.5s2.2-.8,2.2-2.4v-5.7h2.2v5.6c0,3-1.7,4.5-4.4,4.5s-4.3-1.5-4.3-4.4Z"/>
    <path d="M138.8,226.3h2l4.7,6.1v-6.1h2.2v10h-1.9l-4.8-6.3v6.3h-2.2v-10Z"/>
    <path d="M155,228.3h-3v-2h8.3v2h-3v8h-2.2v-8Z"/>
    <path d="M164.5,226.3h2.2v10h-2.2v-10Z"/>
    <path d="M172,226.3h2l4.7,6.1v-6.1h2.2v10h-1.9l-4.8-6.3v6.3h-2.2v-10Z"/>
    <path d="M185.6,231.3h0c0-2.9,2.2-5.2,5.2-5.2s2.9.5,3.9,1.4l-1.4,1.7c-.8-.6-1.5-1-2.6-1s-2.9,1.4-2.9,3.1h0c0,1.9,1.3,3.2,3,3.2s1.5-.2,2.1-.6v-1.4h-2.2v-1.9h4.3v4.3c-1,.9-2.4,1.6-4.3,1.6-3.1,0-5.2-2.2-5.2-5.1Z"/>
    <path d="M206.2,234.8l1.3-1.6c.9.7,1.8,1.2,3,1.2s1.4-.4,1.4-.9h0c0-.6-.3-.9-2-1.3-2-.5-3.3-1.1-3.3-3.1h0c0-1.8,1.5-3,3.5-3s2.7.5,3.7,1.3l-1.1,1.7c-.9-.6-1.8-1-2.6-1s-1.3.4-1.3.9h0c0,.7.4.9,2.2,1.3,2,.5,3.2,1.3,3.2,3h0c0,2-1.5,3.1-3.7,3.1s-3-.5-4.2-1.6Z"/>
    <path d="M218.2,231.3h0c0-2.9,2.2-5.2,5.3-5.2s5.3,2.3,5.3,5.1h0c0,2.9-2.2,5.2-5.3,5.2s-5.3-2.3-5.3-5.1ZM226.5,231.3h0c0-1.7-1.3-3.2-3-3.2s-3,1.4-3,3.1h0c0,1.7,1.3,3.2,3,3.2s3-1.4,3-3.1Z"/>
    <path d="M233.5,226.3h2.2v8h5v2h-7.2v-10Z"/>
    <path d="M244.7,232v-5.7h2.2v5.6c0,1.6.8,2.5,2.2,2.5s2.2-.8,2.2-2.4v-5.7h2.2v5.6c0,3-1.7,4.5-4.4,4.5s-4.3-1.5-4.3-4.4Z"/>
    <path d="M260.6,228.3h-3v-2h8.3v2h-3v8h-2.2v-8Z"/>
    <path d="M270.2,226.3h2.2v10h-2.2v-10Z"/>
    <path d="M277.1,231.3h0c0-2.9,2.2-5.2,5.3-5.2s5.3,2.3,5.3,5.1h0c0,2.9-2.2,5.2-5.3,5.2s-5.3-2.3-5.3-5.1ZM285.4,231.3h0c0-1.7-1.3-3.2-3-3.2s-3,1.4-3,3.1h0c0,1.7,1.3,3.2,3,3.2s3-1.4,3-3.1Z"/>
    <path d="M292.4,226.3h2l4.7,6.1v-6.1h2.2v10h-1.9l-4.8-6.3v6.3h-2.2v-10Z"/>
    <path d="M305.8,234.8l1.3-1.6c.9.7,1.8,1.2,3,1.2s1.4-.4,1.4-.9h0c0-.6-.3-.9-2-1.3-2-.5-3.3-1.1-3.3-3.1h0c0-1.8,1.5-3,3.5-3s2.7.5,3.7,1.3l-1.1,1.7c-.9-.6-1.8-1-2.6-1s-1.3.4-1.3.9h0c0,.7.4.9,2.2,1.3,2,.5,3.2,1.3,3.2,3h0c0,2-1.5,3.1-3.7,3.1s-3-.5-4.2-1.6Z"/>
  </g>
</svg>